<svg version="1.1" id="Layer_1" xmlns="http://www.w3.org/2000/svg" xmlns:xlink="http://www.w3.org/1999/xlink" x="0px" y="0px"
	 width="100%" viewBox="0 0 512 512" enable-background="new 0 0 512 512" xml:space="preserve">

<path fill="#00CBF1" opacity="1.000000" stroke="none" 
	d="
M480.050659,284.021484 
	C474.044067,285.023987 468.487213,286.120789 462.885742,286.894226 
	C457.599213,287.624176 454.257965,290.453461 453.245667,295.576385 
	C448.050812,321.865570 437.955688,346.104156 423.119110,368.391327 
	C420.159271,372.837524 420.521393,377.057007 423.624481,381.333801 
	C429.574066,389.533630 435.391022,397.829712 441.042816,405.776306 
	C429.201660,417.605377 417.674469,429.120819 405.756500,441.026642 
	C398.334564,435.734528 390.512726,430.134705 382.666382,424.569458 
	C376.059174,419.883057 373.512360,419.755585 366.838501,424.141113 
	C345.454346,438.193085 322.228271,447.746613 297.186157,452.948517 
	C290.025360,454.436005 288.079712,456.511871 286.817200,463.742432 
	C285.135040,473.376068 283.496399,483.017334 281.815002,492.795105 
	C265.193298,492.795105 248.914017,492.795105 232.172241,492.795105 
	C230.466003,482.787476 228.658401,472.850372 227.115448,462.872345 
	C226.264114,457.367004 223.245651,454.172516 217.922424,453.115784 
	C192.149475,447.999512 168.319580,438.158813 146.461151,423.611481 
	C141.275345,420.160126 136.718414,420.516541 131.815704,424.178436 
	C123.968597,430.039520 115.895432,435.597961 108.230064,441.061768 
	C96.375328,429.202881 84.853645,417.677124 72.952301,405.771576 
	C78.263710,398.315002 83.857399,390.484833 89.426285,382.637054 
	C94.099190,376.051941 94.254539,373.481415 89.859657,366.799957 
	C75.701668,345.275818 66.070076,321.899719 61.007710,296.651672 
	C59.850002,290.877716 56.658947,287.676453 50.725632,286.792664 
	C41.020405,285.347076 31.365475,283.563782 21.355915,281.866394 
	C21.355915,265.394012 21.355915,248.999008 21.355915,232.158676 
	C31.080441,230.500885 40.852753,228.688354 50.675961,227.215179 
	C56.592442,226.327881 59.839001,223.174942 60.996353,217.391037 
	C66.049088,192.139847 75.678055,168.764206 89.836571,147.239990 
	C94.250801,140.529327 94.100197,137.945389 89.453247,131.399246 
	C83.879036,123.546883 78.282524,115.710342 72.894264,108.145752 
	C84.760269,96.279953 96.287407,84.753014 108.154861,72.885765 
	C115.863815,78.379715 123.832336,84.075859 131.819748,89.745384 
	C137.805054,93.993797 140.590134,94.163132 146.814911,90.081451 
	C168.490891,75.868187 191.991837,66.142769 217.390106,60.959225 
	C223.740280,59.663216 225.999115,57.171909 227.125015,50.657665 
	C228.796661,40.985706 230.436722,31.308287 232.142349,21.328148 
	C248.633469,21.328148 265.038788,21.328148 281.847260,21.328148 
	C283.544373,31.285700 285.345703,41.234669 286.900421,51.222027 
	C287.760040,56.743946 290.860046,59.855522 296.171021,60.900635 
	C322.131683,66.009277 346.069000,75.994965 368.051544,90.684822 
	C372.649017,93.757088 376.982971,93.567627 381.439850,90.326981 
	C389.510376,84.458755 397.680420,78.727386 405.342163,73.271263 
	C417.120026,85.101883 428.692200,96.725891 440.675812,108.763199 
	C435.699036,115.746712 430.102966,123.586044 424.521332,131.435654 
	C419.896637,137.939438 419.747009,140.530655 424.184357,147.267670 
	C438.263580,168.643600 447.738007,191.899536 452.966797,216.927017 
	C454.435486,223.956863 456.611298,225.937103 463.864319,227.187531 
	C473.373108,228.826859 482.881958,230.465591 492.684326,232.155167 
	C492.684326,248.646042 492.684326,265.055908 492.684326,281.810638 
	C488.598816,282.535065 484.539856,283.254791 480.050659,284.021484 
M210.055069,113.749176 
	C206.347992,108.270073 202.079849,106.583160 197.127838,108.639923 
	C192.076523,110.737930 190.259460,115.102188 190.901337,122.135536 
	C183.969055,126.196945 177.036758,130.258347 169.454636,133.931976 
	C163.678970,129.585220 159.748672,129.584076 154.314484,134.364609 
	C110.100739,173.260147 90.890991,222.016144 98.943962,280.386566 
	C111.422318,370.833374 199.840103,433.001434 289.105927,413.574066 
	C348.960815,400.547546 390.117310,364.122406 408.949615,305.741241 
	C427.540680,248.107834 415.616211,195.152756 375.419098,149.925659 
	C341.797211,112.096535 298.445740,95.254395 247.875626,97.235100 
	C238.365173,97.607597 235.559418,100.241837 233.849701,108.824577 
	C226.048889,110.639030 218.248093,112.453491 210.055069,113.749176 
z"/>
<path fill="#010202" opacity="1.000000" stroke="none" 
	d="
M234.659256,108.686523 
	C235.559418,100.241837 238.365173,97.607597 247.875626,97.235100 
	C298.445740,95.254395 341.797211,112.096535 375.419098,149.925659 
	C415.616211,195.152756 427.540680,248.107834 408.949615,305.741241 
	C390.117310,364.122406 348.960815,400.547546 289.105927,413.574066 
	C199.840103,433.001434 111.422318,370.833374 98.943962,280.386566 
	C90.890991,222.016144 110.100739,173.260147 154.314484,134.364609 
	C159.748672,129.584076 163.678970,129.585220 169.884735,134.456848 
	C173.275116,141.130447 172.623734,144.742386 167.731125,149.166000 
	C166.371765,150.395065 164.953995,151.559769 163.599670,152.794205 
	C135.023376,178.840897 119.244240,211.245941 117.241829,249.759567 
	C114.240509,307.485687 146.218613,359.695374 198.590836,384.147919 
	C200.181168,384.890472 201.836075,385.494690 203.708588,386.265320 
	C203.826111,384.970734 203.937241,384.316528 203.937454,383.662292 
	C203.947723,352.168945 203.890015,320.675354 204.037720,289.182678 
	C204.053024,285.923157 202.488617,285.025879 199.991974,283.972290 
	C173.385986,272.744476 157.066940,244.247101 161.328568,216.652054 
	C168.163269,172.395721 213.858551,148.713669 254.171539,168.419495 
	C255.737778,169.185089 258.345734,169.121109 259.926361,168.342941 
	C269.688019,163.537140 279.960236,161.021027 290.785217,161.301620 
	C320.528473,162.072632 346.499664,183.861771 351.906708,212.341370 
	C357.595032,242.302261 342.461060,271.623779 314.800415,283.613617 
	C311.178253,285.183685 309.917114,286.822510 309.943329,290.815247 
	C310.139099,320.640991 310.049744,350.468567 310.049744,380.295593 
	C310.049744,382.085480 310.049744,383.875336 310.049744,386.216919 
	C311.930206,385.531311 313.318207,385.114594 314.633209,384.532867 
	C370.452759,359.840729 404.460846,298.477020 395.762207,238.172501 
	C385.158600,164.661697 321.446625,112.801132 247.240570,117.278290 
	C239.988937,117.715813 237.109833,115.749687 234.659256,108.686523 
M185.912415,245.504044 
	C192.044281,257.013977 201.533691,264.296082 214.026749,267.753387 
	C221.909134,269.934753 223.949905,272.557648 223.951691,280.855408 
	C223.959320,316.349670 223.954941,351.843903 223.954956,387.338165 
	C223.954956,389.156342 223.954956,390.974518 223.954956,392.961609 
	C246.104843,398.263123 267.946503,398.376068 290.045013,392.933746 
	C290.045013,390.872955 290.044983,389.052856 290.044983,387.232758 
	C290.044983,352.405060 290.044800,317.577393 290.045105,282.749695 
	C290.045197,271.944550 291.286835,270.262390 301.484314,267.244080 
	C318.900879,262.089020 331.717072,246.635376 332.970642,229.278015 
	C334.342804,210.278976 324.598785,193.177505 307.715118,185.444733 
	C296.743103,180.419479 285.532440,179.881226 273.769470,184.323273 
	C283.137787,196.227814 288.100006,209.206940 288.463165,223.845505 
	C288.618713,230.114563 285.040649,234.566467 279.519836,235.045013 
	C273.586609,235.559311 269.371765,231.780426 268.611633,225.306931 
	C268.224030,222.006012 268.118958,218.624222 267.299133,215.429657 
	C262.805176,197.918854 251.799271,186.394318 234.167450,182.481735 
	C216.753983,178.617584 201.644241,183.966431 190.530884,197.959396 
	C179.161499,212.274704 177.837326,228.218719 185.912415,245.504044 
z"/>
<path fill="#858FAE" opacity="1.000000" stroke="none" 
	d="
M234.254486,108.755554 
	C237.109833,115.749687 239.988937,117.715813 247.240570,117.278290 
	C321.446625,112.801132 385.158600,164.661697 395.762207,238.172501 
	C404.460846,298.477020 370.452759,359.840729 314.633209,384.532867 
	C313.318207,385.114594 311.930206,385.531311 310.049744,386.216919 
	C310.049744,383.875336 310.049744,382.085480 310.049744,380.295593 
	C310.049744,350.468567 310.139099,320.640991 309.943329,290.815247 
	C309.917114,286.822510 311.178253,285.183685 314.800415,283.613617 
	C342.461060,271.623779 357.595032,242.302261 351.906708,212.341370 
	C346.499664,183.861771 320.528473,162.072632 290.785217,161.301620 
	C279.960236,161.021027 269.688019,163.537140 259.926361,168.342941 
	C258.345734,169.121109 255.737778,169.185089 254.171539,168.419495 
	C213.858551,148.713669 168.163269,172.395721 161.328568,216.652054 
	C157.066940,244.247101 173.385986,272.744476 199.991974,283.972290 
	C202.488617,285.025879 204.053024,285.923157 204.037720,289.182678 
	C203.890015,320.675354 203.947723,352.168945 203.937454,383.662292 
	C203.937241,384.316528 203.826111,384.970734 203.708588,386.265320 
	C201.836075,385.494690 200.181168,384.890472 198.590836,384.147919 
	C146.218613,359.695374 114.240509,307.485687 117.241829,249.759567 
	C119.244240,211.245941 135.023376,178.840897 163.599670,152.794205 
	C164.953995,151.559769 166.371765,150.395065 167.731125,149.166000 
	C172.623734,144.742386 173.275116,141.130447 170.209656,134.650726 
	C177.036758,130.258347 183.969055,126.196945 191.455475,122.251968 
	C195.913162,127.516037 199.993805,129.014084 204.695450,127.025528 
	C209.563919,124.966415 211.434784,120.816849 210.447281,114.267944 
	C218.248093,112.453491 226.048889,110.639030 234.254486,108.755554 
z"/>
<path fill="#020505" opacity="1.000000" stroke="none" 
	d="
M210.251175,114.008560 
	C211.434784,120.816849 209.563919,124.966415 204.695450,127.025528 
	C199.993805,129.014084 195.913162,127.516037 191.815582,122.116753 
	C190.259460,115.102188 192.076523,110.737930 197.127838,108.639923 
	C202.079849,106.583160 206.347992,108.270073 210.251175,114.008560 
z"/>
<path fill="#F9F6F4" opacity="1.000000" stroke="none" 
	d="
M185.735001,245.173401 
	C177.837326,228.218719 179.161499,212.274704 190.530884,197.959396 
	C201.644241,183.966431 216.753983,178.617584 234.167450,182.481735 
	C251.799271,186.394318 262.805176,197.918854 267.299133,215.429657 
	C268.118958,218.624222 268.224030,222.006012 268.611633,225.306931 
	C269.371765,231.780426 273.586609,235.559311 279.519836,235.045013 
	C285.040649,234.566467 288.618713,230.114563 288.463165,223.845505 
	C288.100006,209.206940 283.137787,196.227814 273.769470,184.323273 
	C285.532440,179.881226 296.743103,180.419479 307.715118,185.444733 
	C324.598785,193.177505 334.342804,210.278976 332.970642,229.278015 
	C331.717072,246.635376 318.900879,262.089020 301.484314,267.244080 
	C291.286835,270.262390 290.045197,271.944550 290.045105,282.749695 
	C290.044800,317.577393 290.044983,352.405060 290.044983,387.232758 
	C290.044983,389.052856 290.045013,390.872955 290.045013,392.933746 
	C267.946503,398.376068 246.104843,398.263123 223.954956,392.961609 
	C223.954956,390.974518 223.954956,389.156342 223.954956,387.338165 
	C223.954941,351.843903 223.959320,316.349670 223.951691,280.855408 
	C223.949905,272.557648 221.909134,269.934753 214.026749,267.753387 
	C201.533691,264.296082 192.044281,257.013977 185.735001,245.173401 
z"/>
</svg>